<svg width="149" height="34" viewBox="0 0 149 34" fill="none" xmlns="http://www.w3.org/2000/svg">
<path d="M17.4482 25V10.42H21.2462C21.8702 10.42 22.4582 10.468 23.0102 10.564C23.5742 10.66 24.0722 10.846 24.5042 11.122C24.9362 11.386 25.2722 11.77 25.5122 12.274C25.7642 12.766 25.8902 13.42 25.8902 14.236C25.8902 14.824 25.8002 15.322 25.6202 15.73C25.4522 16.126 25.2062 16.444 24.8822 16.684C24.5702 16.924 24.1922 17.086 23.7482 17.17C24.3122 17.242 24.7862 17.428 25.1702 17.728C25.5542 18.016 25.8422 18.406 26.0342 18.898C26.2382 19.39 26.3402 19.984 26.3402 20.68C26.3402 21.436 26.2382 22.09 26.0342 22.642C25.8422 23.182 25.5602 23.626 25.1882 23.974C24.8162 24.322 24.3542 24.58 23.8022 24.748C23.2622 24.916 22.6382 25 21.9302 25H17.4482ZM20.6702 22.75H21.3542C22.0622 22.75 22.5482 22.57 22.8122 22.21C23.0882 21.85 23.2262 21.322 23.2262 20.626C23.2262 20.074 23.1662 19.636 23.0462 19.312C22.9262 18.988 22.7282 18.754 22.4522 18.61C22.1762 18.454 21.8042 18.376 21.3362 18.376H20.6702V22.75ZM20.6702 16.252H21.3002C21.7922 16.252 22.1642 16.18 22.4162 16.036C22.6682 15.88 22.8362 15.658 22.9202 15.37C23.0162 15.082 23.0642 14.734 23.0642 14.326C23.0642 13.942 22.9922 13.624 22.8482 13.372C22.7162 13.108 22.5122 12.91 22.2362 12.778C21.9722 12.646 21.6362 12.58 21.2282 12.58H20.6702V16.252ZM32.2422 25.216C31.1262 25.216 30.2502 25.036 29.6142 24.676C28.9902 24.304 28.5522 23.77 28.3002 23.074C28.0482 22.366 27.9222 21.502 27.9222 20.482V10.42H31.1082V20.968C31.1082 21.268 31.1322 21.568 31.1802 21.868C31.2282 22.168 31.3302 22.414 31.4862 22.606C31.6542 22.798 31.9062 22.894 32.2422 22.894C32.5902 22.894 32.8422 22.798 32.9982 22.606C33.1542 22.414 33.2502 22.168 33.2862 21.868C33.3342 21.568 33.3582 21.268 33.3582 20.968V10.42H36.5622V20.482C36.5622 21.502 36.4302 22.366 36.1662 23.074C35.9142 23.77 35.4762 24.304 34.8522 24.676C34.2282 25.036 33.3582 25.216 32.2422 25.216ZM42.4102 25.216C41.4022 25.216 40.6042 25.006 40.0162 24.586C39.4402 24.166 39.0262 23.578 38.7742 22.822C38.5342 22.054 38.4142 21.172 38.4142 20.176V15.28C38.4142 14.248 38.5462 13.354 38.8102 12.598C39.0742 11.842 39.5242 11.26 40.1602 10.852C40.8082 10.432 41.6842 10.222 42.7882 10.222C43.8682 10.222 44.7142 10.402 45.3262 10.762C45.9502 11.122 46.3942 11.62 46.6582 12.256C46.9222 12.892 47.0542 13.636 47.0542 14.488V15.424H43.9042V14.236C43.9042 13.924 43.8802 13.636 43.8322 13.372C43.7962 13.108 43.7002 12.898 43.5442 12.742C43.4002 12.574 43.1602 12.49 42.8242 12.49C42.4762 12.49 42.2242 12.586 42.0682 12.778C41.9122 12.958 41.8102 13.186 41.7622 13.462C41.7262 13.738 41.7082 14.026 41.7082 14.326V21.076C41.7082 21.4 41.7382 21.706 41.7982 21.994C41.8702 22.27 41.9902 22.498 42.1582 22.678C42.3382 22.846 42.5902 22.93 42.9142 22.93C43.2502 22.93 43.5082 22.84 43.6882 22.66C43.8682 22.48 43.9942 22.246 44.0662 21.958C44.1382 21.67 44.1742 21.364 44.1742 21.04V19.33H42.8602V17.44H47.0722V25H44.9482L44.7682 23.794C44.5762 24.202 44.2942 24.544 43.9222 24.82C43.5502 25.084 43.0462 25.216 42.4102 25.216ZM49.0888 25V10.42H52.3108V22.822H55.6588V25H49.0888ZM57.0693 25V10.42H63.6213V12.616H60.2913V16.234H62.8293V18.466H60.2913V22.822H63.6573V25H57.0693ZM65.192 19.618V17.746H69.854V19.618H65.192ZM76.2394 25.216C75.1354 25.216 74.2594 25.018 73.6114 24.622C72.9754 24.214 72.5254 23.65 72.2614 22.93C71.9974 22.198 71.8654 21.34 71.8654 20.356V15.1C71.8654 14.092 71.9974 13.228 72.2614 12.508C72.5254 11.776 72.9754 11.212 73.6114 10.816C74.2594 10.42 75.1354 10.222 76.2394 10.222C77.3194 10.222 78.1594 10.402 78.7594 10.762C79.3714 11.11 79.8034 11.602 80.0554 12.238C80.3074 12.874 80.4334 13.606 80.4334 14.434V15.694H77.2834V14.236C77.2834 13.948 77.2654 13.672 77.2294 13.408C77.2054 13.144 77.1214 12.928 76.9774 12.76C76.8334 12.58 76.5874 12.49 76.2394 12.49C75.9034 12.49 75.6514 12.58 75.4834 12.76C75.3274 12.94 75.2254 13.168 75.1774 13.444C75.1414 13.708 75.1234 13.99 75.1234 14.29V21.148C75.1234 21.472 75.1474 21.772 75.1954 22.048C75.2554 22.312 75.3634 22.528 75.5194 22.696C75.6874 22.852 75.9274 22.93 76.2394 22.93C76.5754 22.93 76.8154 22.846 76.9594 22.678C77.1034 22.498 77.1934 22.27 77.2294 21.994C77.2654 21.718 77.2834 21.436 77.2834 21.148V19.618H80.4334V20.878C80.4334 21.706 80.3074 22.45 80.0554 23.11C79.8154 23.758 79.3894 24.274 78.7774 24.658C78.1774 25.03 77.3314 25.216 76.2394 25.216ZM82.206 25V10.42H86.22C87.204 10.42 88.056 10.528 88.776 10.744C89.496 10.96 90.054 11.35 90.45 11.914C90.858 12.466 91.062 13.252 91.062 14.272C91.062 14.872 91.014 15.406 90.918 15.874C90.822 16.342 90.642 16.75 90.378 17.098C90.126 17.434 89.76 17.716 89.28 17.944L91.278 25H87.948L86.346 18.466H85.428V25H82.206ZM85.428 16.612H86.328C86.784 16.612 87.138 16.534 87.39 16.378C87.642 16.21 87.816 15.976 87.912 15.676C88.02 15.364 88.074 14.992 88.074 14.56C88.074 13.936 87.96 13.45 87.732 13.102C87.504 12.754 87.084 12.58 86.472 12.58H85.428V16.612ZM97.1231 25.216C96.0071 25.216 95.1311 25.036 94.4951 24.676C93.8711 24.304 93.4331 23.77 93.1811 23.074C92.9291 22.366 92.8031 21.502 92.8031 20.482V10.42H95.9891V20.968C95.9891 21.268 96.0131 21.568 96.0611 21.868C96.1091 22.168 96.2111 22.414 96.3671 22.606C96.5351 22.798 96.7871 22.894 97.1231 22.894C97.4711 22.894 97.7231 22.798 97.8791 22.606C98.0351 22.414 98.1311 22.168 98.1671 21.868C98.2151 21.568 98.2391 21.268 98.2391 20.968V10.42H101.443V20.482C101.443 21.502 101.311 22.366 101.047 23.074C100.795 23.77 100.357 24.304 99.7331 24.676C99.1091 25.036 98.2391 25.216 97.1231 25.216ZM103.493 25V10.42H105.761L108.749 17.44V10.42H111.413V25H109.235L106.247 17.44V25H103.493ZM117.759 25.216C116.655 25.216 115.779 25.018 115.131 24.622C114.495 24.214 114.045 23.65 113.781 22.93C113.517 22.198 113.385 21.34 113.385 20.356V15.1C113.385 14.092 113.517 13.228 113.781 12.508C114.045 11.776 114.495 11.212 115.131 10.816C115.779 10.42 116.655 10.222 117.759 10.222C118.839 10.222 119.679 10.402 120.279 10.762C120.891 11.11 121.323 11.602 121.575 12.238C121.827 12.874 121.953 13.606 121.953 14.434V15.694H118.803V14.236C118.803 13.948 118.785 13.672 118.749 13.408C118.725 13.144 118.641 12.928 118.497 12.76C118.353 12.58 118.107 12.49 117.759 12.49C117.423 12.49 117.171 12.58 117.003 12.76C116.847 12.94 116.745 13.168 116.697 13.444C116.661 13.708 116.643 13.99 116.643 14.29V21.148C116.643 21.472 116.667 21.772 116.715 22.048C116.775 22.312 116.883 22.528 117.039 22.696C117.207 22.852 117.447 22.93 117.759 22.93C118.095 22.93 118.335 22.846 118.479 22.678C118.623 22.498 118.713 22.27 118.749 21.994C118.785 21.718 118.803 21.436 118.803 21.148V19.618H121.953V20.878C121.953 21.706 121.827 22.45 121.575 23.11C121.335 23.758 120.909 24.274 120.297 24.658C119.697 25.03 118.851 25.216 117.759 25.216ZM123.78 25V10.42H127.002V16.324H129.252V10.42H132.492V25H129.252V18.628H127.002V25H123.78Z" fill="black"/>
<path d="M148 19.3529H143L146.333 22L148 19.3529Z" fill="black" stroke="black"/>
<path d="M143 10.9706L145.5 7L147.167 9.20588L143 10.9706Z" fill="black" stroke="black"/>
<path d="M1 18.3462H5.8L2.6 20.7209L1 18.3462Z" fill="black" stroke="black"/>
<path d="M7 10.5622L4.6 7L3 8.97898L7 10.5622Z" fill="black" stroke="black"/>
</svg>
